<?xml version="1.0" encoding="UTF-8"?>
<svg version="1.1" xmlns="http://www.w3.org/2000/svg" width="20" height="20">
<path d="M0 0 C16.66405355 -0.07019032 33.32805888 -0.12303715 49.99222469 -0.15543652 C57.73029978 -0.17088231 65.46828283 -0.19192787 73.20629883 -0.22631836 C79.95351731 -0.25629101 86.70066911 -0.27559162 93.44795233 -0.28226548 C97.01810405 -0.28616448 100.58806505 -0.29527942 104.15815544 -0.31719017 C108.15101328 -0.34149508 112.14354296 -0.34196497 116.13647461 -0.34057617 C117.89730629 -0.35675491 117.89730629 -0.35675491 119.69371033 -0.3732605 C126.40593113 -0.34804534 131.78396987 0.49474422 138 3 C141.25833771 3.99580658 144.52235025 4.96958526 147.7890625 5.9375 C151 7 151 7 154.27734375 8.51953125 C158.68764047 10.4469134 163.19134543 11.06474583 167.9375 11.6875 C169.35276978 11.87747559 169.35276978 11.87747559 170.79663086 12.07128906 C183.19760645 13.5806016 196.69650473 14.51817381 209 12 C210.47545553 11.87388991 211.95402631 11.78001168 213.43359375 11.71875 C214.24763672 11.68136719 215.06167969 11.64398438 215.90039062 11.60546875 C216.73763672 11.57066406 217.57488281 11.53585937 218.4375 11.5 C220.10300828 11.43044281 221.76838302 11.35759958 223.43359375 11.28125 C224.53272095 11.23581055 224.53272095 11.23581055 225.65405273 11.18945312 C228.05789547 11.03915458 228.05789547 11.03915458 230.6171875 10.49072266 C235.31688634 9.80896784 239.94873443 9.85740543 244.69140625 9.8671875 C245.71427231 9.86623077 246.73713837 9.86527405 247.79100037 9.86428833 C249.94684918 9.8636097 252.10270007 9.86544186 254.25854492 9.86962891 C257.55457144 9.87498711 260.85046204 9.86967032 264.14648438 9.86328125 C266.24479197 9.86394198 268.34309947 9.86522304 270.44140625 9.8671875 C271.42484512 9.86516327 272.408284 9.86313904 273.42152405 9.86105347 C274.34275558 9.86420563 275.26398712 9.86735779 276.21313477 9.87060547 C277.42175926 9.87179886 277.42175926 9.87179886 278.65480042 9.87301636 C281.18347747 10.00993461 283.52733686 10.46579695 286 11 C311.95527729 13.97434769 337.34636372 14.46022577 362.4921875 6.4765625 C363.1781601 6.26207962 363.86413269 6.04759674 364.57089233 5.82661438 C366.37040058 5.21424984 368.1418904 4.518185 369.89321899 3.77922058 C383.18006083 -1.27224864 396.6392321 -0.65258538 410.67115593 -0.50696969 C414.24381521 -0.47532777 417.81650443 -0.47274611 421.38928223 -0.46684265 C428.12860638 -0.45141366 434.86751622 -0.41053687 441.60665941 -0.3600952 C449.29001762 -0.30385682 456.97339751 -0.27662933 464.6569109 -0.25161803 C480.43817903 -0.19960849 496.21903571 -0.11188408 512 0 C512.18309718 57.14003191 512.32408653 114.28003548 512.40852264 171.42030301 C512.41850115 178.16570057 512.42887361 184.9110975 512.43945312 191.65649414 C512.4404992 192.327735 512.44154527 192.99897587 512.44262304 193.69055736 C512.47670164 215.43957313 512.53678285 237.18842241 512.61037777 258.93733735 C512.68802273 281.92493465 512.73597674 304.91246353 512.75270796 327.90019673 C512.76368681 341.66896197 512.79836635 355.43724916 512.86333174 369.20586725 C512.90560838 378.64659496 512.91840328 388.0870754 512.90801102 397.5278909 C512.90288515 402.97552338 512.91076072 408.42232034 512.9536438 413.86980438 C512.99264131 418.86018048 512.99450033 423.84916112 512.96719116 428.83960214 C512.96381726 430.64196751 512.97391275 432.44442076 512.99906546 434.24661378 C513.1469634 445.50063769 512.19446106 452.50399572 504 461 C503.4844872 461.58237389 502.96897439 462.16474779 502.43783998 462.76476938 C501.125 464.1875 501.125 464.1875 499 466 C498.34 466 497.68 466 497 466 C496.6596875 467.051875 496.6596875 467.051875 496.3125 468.125 C493.38526574 474.53703696 489.16742004 477.83492973 483.28125 481.41015625 C480.86810334 482.9907706 480.86810334 482.9907706 478.63671875 485.37890625 C475.72674881 488.27163193 472.67174786 490.5422402 469.3125 492.875 C468.69310547 493.30917236 468.07371094 493.74334473 467.43554688 494.19067383 C466.19326921 495.06139461 464.94996483 495.93065266 463.70556641 496.79833984 C462.24065999 497.83044253 460.79591577 498.8910579 459.35546875 499.95703125 C447.31114019 508.80551807 437.57257921 513.06613071 422.56056213 512.89561462 C421.05359758 512.90441852 419.54664831 512.91626211 418.03972858 512.93084341 C413.93837548 512.96174713 409.83815461 512.94959895 405.73677576 512.92973173 C401.29829691 512.91587044 396.86002487 512.94247777 392.42160034 512.96366882 C383.74214407 512.99854577 375.06310001 512.99567468 366.38360543 512.97880536 C359.32548724 512.96569931 352.26748673 512.9659688 345.20936394 512.97564888 C344.20258479 512.97701023 343.19580564 512.97837159 342.15851803 512.9797742 C340.11288044 512.98258474 338.06724289 512.98541994 336.02160536 512.98827953 C316.86468915 513.01337896 297.70800285 512.99489423 278.55111104 512.96189285 C262.13638284 512.93471106 245.7220675 512.94716323 229.30737305 512.98803711 C210.21784029 513.03556485 191.12856193 513.05671327 172.03897136 513.03740031 C170.00079822 513.03542223 167.96262505 513.03348451 165.92445183 513.0315876 C164.92179209 513.03064838 163.91913235 513.02970917 162.88608899 513.02874149 C155.84216859 513.02399924 148.79843289 513.0381204 141.75454903 513.05979729 C133.16195094 513.08580351 124.5699219 513.08322527 115.9773621 513.0446034 C111.59846852 513.02564949 107.22055495 513.01917691 102.84169197 513.04785156 C98.82353778 513.07380363 94.80722785 513.06203941 90.78920852 513.02170212 C89.34523611 513.01354149 87.90110846 513.01850127 86.45725591 513.03881692 C70.80455278 513.24259217 60.26410278 506.0293584 48 497 C47.01 496.34 46.02 495.68 45 495 C44.01 494.34 43.02 493.68 42 493 C41.34821777 492.59265625 40.69643555 492.1853125 40.02490234 491.765625 C32.29405148 486.7019911 25.97300716 480.4303372 19.50244141 473.89355469 C17.61817532 471.99311675 15.718279 470.10936273 13.81640625 468.2265625 C12.59799463 467.00616972 11.38051326 465.78484732 10.1640625 464.5625 C9.60361237 464.00812256 9.04316223 463.45374512 8.46572876 462.88256836 C7.93772675 462.34510986 7.40972473 461.80765137 6.86572266 461.25390625 C6.17816391 460.56276733 6.17816391 460.56276733 5.47671509 459.85766602 C1.12345187 454.38138342 -0.59637409 450.08669093 -0.49219131 443.09523106 C-0.49680669 442.32569761 -0.50142207 441.55616417 -0.50617731 440.76331154 C-0.51675644 438.1873612 -0.49882899 435.6124131 -0.48101807 433.03651428 C-0.48276265 431.17018555 -0.48626549 429.30385778 -0.49137473 427.43753523 C-0.50032068 422.31111534 -0.48431616 417.1850296 -0.46426249 412.05865228 C-0.44699649 406.52975309 -0.45283359 401.00087291 -0.45587158 395.47195435 C-0.45796948 385.89343358 -0.44541427 376.31502176 -0.42292023 366.7365284 C-0.39041878 352.88763462 -0.3799951 339.03879355 -0.37496826 325.18986576 C-0.36621271 302.72119176 -0.33962438 280.25257504 -0.30175781 257.78393555 C-0.26501539 235.9571157 -0.23668324 214.13031138 -0.21972656 192.3034668 C-0.21920046 191.63056826 -0.21867435 190.95766973 -0.21813231 190.26438033 C-0.21285819 183.50680442 -0.20775494 176.74922839 -0.20277687 169.99165225 C-0.16101855 113.32772737 -0.09043893 56.66386676 0 0 Z " fill="#FFFFFF" transform="translate(0,0)"/>
<path d="M0 0 C16.66405355 -0.07019032 33.32805888 -0.12303715 49.99222469 -0.15543652 C57.73029978 -0.17088231 65.46828283 -0.19192787 73.20629883 -0.22631836 C79.95351731 -0.25629101 86.70066911 -0.27559162 93.44795233 -0.28226548 C97.01810405 -0.28616448 100.58806505 -0.29527942 104.15815544 -0.31719017 C108.15101328 -0.34149508 112.14354296 -0.34196497 116.13647461 -0.34057617 C117.89730629 -0.35675491 117.89730629 -0.35675491 119.69371033 -0.3732605 C126.40593113 -0.34804534 131.78396987 0.49474422 138 3 C141.25833771 3.99580658 144.52235025 4.96958526 147.7890625 5.9375 C151 7 151 7 154.27734375 8.51953125 C158.68764047 10.4469134 163.19134543 11.06474583 167.9375 11.6875 C169.35276978 11.87747559 169.35276978 11.87747559 170.79663086 12.07128906 C183.19760645 13.5806016 196.69650473 14.51817381 209 12 C210.47545553 11.87388991 211.95402631 11.78001168 213.43359375 11.71875 C214.24763672 11.68136719 215.06167969 11.64398438 215.90039062 11.60546875 C216.73763672 11.57066406 217.57488281 11.53585937 218.4375 11.5 C220.10300828 11.43044281 221.76838302 11.35759958 223.43359375 11.28125 C224.53272095 11.23581055 224.53272095 11.23581055 225.65405273 11.18945312 C228.05789547 11.03915458 228.05789547 11.03915458 230.6171875 10.49072266 C235.31688634 9.80896784 239.94873443 9.85740543 244.69140625 9.8671875 C245.71427231 9.86623077 246.73713837 9.86527405 247.79100037 9.86428833 C249.94684918 9.8636097 252.10270007 9.86544186 254.25854492 9.86962891 C257.55457144 9.87498711 260.85046204 9.86967032 264.14648438 9.86328125 C266.24479197 9.86394198 268.34309947 9.86522304 270.44140625 9.8671875 C271.42484512 9.86516327 272.408284 9.86313904 273.42152405 9.86105347 C274.34275558 9.86420563 275.26398712 9.86735779 276.21313477 9.87060547 C277.42175926 9.87179886 277.42175926 9.87179886 278.65480042 9.87301636 C281.18347747 10.00993461 283.52733686 10.46579695 286 11 C311.95527729 13.97434769 337.34636372 14.46022577 362.4921875 6.4765625 C363.1781601 6.26207962 363.86413269 6.04759674 364.57089233 5.82661438 C366.37040058 5.21424984 368.1418904 4.518185 369.89321899 3.77922058 C383.18006083 -1.27224864 396.6392321 -0.65258538 410.67115593 -0.50696969 C414.24381521 -0.47532777 417.81650443 -0.47274611 421.38928223 -0.46684265 C428.12860638 -0.45141366 434.86751622 -0.41053687 441.60665941 -0.3600952 C449.29001762 -0.30385682 456.97339751 -0.27662933 464.6569109 -0.25161803 C480.43817903 -0.19960849 496.21903571 -0.11188408 512 0 C512.18309718 57.14003191 512.32408653 114.28003548 512.40852264 171.42030301 C512.41850115 178.16570057 512.42887361 184.9110975 512.43945312 191.65649414 C512.4404992 192.327735 512.44154527 192.99897587 512.44262304 193.69055736 C512.47670164 215.43957313 512.53678285 237.18842241 512.61037777 258.93733735 C512.68802273 281.92493465 512.73597674 304.91246353 512.75270796 327.90019673 C512.76368681 341.66896197 512.79836635 355.43724916 512.86333174 369.20586725 C512.90560838 378.64659496 512.91840328 388.0870754 512.90801102 397.5278909 C512.90288515 402.97552338 512.91076072 408.42232034 512.9536438 413.86980438 C512.99264131 418.86018048 512.99450033 423.84916112 512.96719116 428.83960214 C512.96381726 430.64196751 512.97391275 432.44442076 512.99906546 434.24661378 C513.1469634 445.50063769 512.19446106 452.50399572 504 461 C503.4844872 461.58237389 502.96897439 462.16474779 502.43783998 462.76476938 C501.125 464.1875 501.125 464.1875 499 466 C498.34 466 497.68 466 497 466 C496.6596875 467.051875 496.6596875 467.051875 496.3125 468.125 C493.38526574 474.53703696 489.16742004 477.83492973 483.28125 481.41015625 C480.86810334 482.9907706 480.86810334 482.9907706 478.63671875 485.37890625 C475.72674881 488.27163193 472.67174786 490.5422402 469.3125 492.875 C468.69310547 493.30917236 468.07371094 493.74334473 467.43554688 494.19067383 C466.19326921 495.06139461 464.94996483 495.93065266 463.70556641 496.79833984 C462.24065999 497.83044253 460.79591577 498.8910579 459.35546875 499.95703125 C447.31114019 508.80551807 437.57257921 513.06613071 422.56056213 512.89561462 C421.05359758 512.90441852 419.54664831 512.91626211 418.03972858 512.93084341 C413.93837548 512.96174713 409.83815461 512.94959895 405.73677576 512.92973173 C401.29829691 512.91587044 396.86002487 512.94247777 392.42160034 512.96366882 C383.74214407 512.99854577 375.06310001 512.99567468 366.38360543 512.97880536 C359.32548724 512.96569931 352.26748673 512.9659688 345.20936394 512.97564888 C344.20258479 512.97701023 343.19580564 512.97837159 342.15851803 512.9797742 C340.11288044 512.98258474 338.06724289 512.98541994 336.02160536 512.98827953 C316.86468915 513.01337896 297.70800285 512.99489423 278.55111104 512.96189285 C262.13638284 512.93471106 245.7220675 512.94716323 229.30737305 512.98803711 C210.21784029 513.03556485 191.12856193 513.05671327 172.03897136 513.03740031 C170.00079822 513.03542223 167.96262505 513.03348451 165.92445183 513.0315876 C164.92179209 513.03064838 163.91913235 513.02970917 162.88608899 513.02874149 C155.84216859 513.02399924 148.79843289 513.0381204 141.75454903 513.05979729 C133.16195094 513.08580351 124.5699219 513.08322527 115.9773621 513.0446034 C111.59846852 513.02564949 107.22055495 513.01917691 102.84169197 513.04785156 C98.82353778 513.07380363 94.80722785 513.06203941 90.78920852 513.02170212 C89.34523611 513.01354149 87.90110846 513.01850127 86.45725591 513.03881692 C70.80455278 513.24259217 60.26410278 506.0293584 48 497 C47.01 496.34 46.02 495.68 45 495 C44.01 494.34 43.02 493.68 42 493 C41.34821777 492.59265625 40.69643555 492.1853125 40.02490234 491.765625 C32.29405148 486.7019911 25.97300716 480.4303372 19.50244141 473.89355469 C17.61817532 471.99311675 15.718279 470.10936273 13.81640625 468.2265625 C12.59799463 467.00616972 11.38051326 465.78484732 10.1640625 464.5625 C9.60361237 464.00812256 9.04316223 463.45374512 8.46572876 462.88256836 C7.93772675 462.34510986 7.40972473 461.80765137 6.86572266 461.25390625 C6.17816391 460.56276733 6.17816391 460.56276733 5.47671509 459.85766602 C1.12345187 454.38138342 -0.59637409 450.08669093 -0.49219131 443.09523106 C-0.49680669 442.32569761 -0.50142207 441.55616417 -0.50617731 440.76331154 C-0.51675644 438.1873612 -0.49882899 435.6124131 -0.48101807 433.03651428 C-0.48276265 431.17018555 -0.48626549 429.30385778 -0.49137473 427.43753523 C-0.50032068 422.31111534 -0.48431616 417.1850296 -0.46426249 412.05865228 C-0.44699649 406.52975309 -0.45283359 401.00087291 -0.45587158 395.47195435 C-0.45796948 385.89343358 -0.44541427 376.31502176 -0.42292023 366.7365284 C-0.39041878 352.88763462 -0.3799951 339.03879355 -0.37496826 325.18986576 C-0.36621271 302.72119176 -0.33962438 280.25257504 -0.30175781 257.78393555 C-0.26501539 235.9571157 -0.23668324 214.13031138 -0.21972656 192.3034668 C-0.21920046 191.63056826 -0.21867435 190.95766973 -0.21813231 190.26438033 C-0.21285819 183.50680442 -0.20775494 176.74922839 -0.20277687 169.99165225 C-0.16101855 113.32772737 -0.09043893 56.66386676 0 0 Z M7.3984375 33.01953125 C0.98280461 42.8305722 0.79470532 53.61762796 2.63549805 64.89239502 C3.52846308 68.88835617 4.53292704 72.83537326 5.59375 76.7890625 C5.97813325 78.27916145 6.36079487 79.76970539 6.74188232 81.26065063 C7.55307428 84.41919763 8.37610149 87.57430921 9.20910645 90.72717285 C10.51853588 95.68376015 11.79943088 100.64746405 13.07714844 105.61230469 C16.70193051 119.6701773 20.39517356 133.71008943 24.09051514 147.74954796 C25.61652252 153.54836139 27.13536423 159.3490276 28.65026855 165.15075111 C29.70266324 169.17624976 30.76893695 173.19773202 31.84666061 177.21652031 C32.66290207 180.27194299 33.4627323 183.33167214 34.265625 186.390625 C34.56047791 187.47260162 34.85533081 188.55457825 35.15911865 189.66934204 C37.11944544 197.2269437 37.09349674 202.74382894 34.21484375 210.09765625 C33.85293945 211.04809814 33.49103516 211.99854004 33.11816406 212.9777832 C32.72854492 213.99573975 32.33892578 215.01369629 31.9375 216.0625 C19.10977764 250.77204996 11.51646728 287.75088116 11.6875 324.8125 C11.68932281 325.63972565 11.69114563 326.46695129 11.69302368 327.31924438 C11.74020094 340.07692657 12.2482593 352.49770104 15 365 C15.17160645 365.79809082 15.34321289 366.59618164 15.52001953 367.41845703 C23.47999547 403.26324592 43.6575974 433.13784991 74.41796875 453.26953125 C126.33483736 486.16002705 190.92078746 492.67048448 251.05224609 492.39111328 C254.75873548 492.37402284 258.46457779 492.38422764 262.1710453 492.4014349 C278.0904207 492.4638767 293.87813732 491.99647791 309.7421875 490.62109375 C310.45289902 490.55991238 311.16361053 490.498731 311.89585876 490.43569565 C368.1055165 485.48551461 430.52535456 470.30675426 468.45458984 425.27294922 C484.95591337 404.79960577 494.80131695 380.06530156 498 354 C498.09063721 353.32195312 498.18127441 352.64390625 498.2746582 351.9453125 C501.30478581 326.55202788 499.46849125 300.07054908 495 275 C494.81808105 273.95392578 494.63616211 272.90785156 494.44873047 271.83007812 C490.62354087 250.37619973 484.52665026 229.2651204 476.3503418 209.06396484 C476.02718994 208.2333252 475.70403809 207.40268555 475.37109375 206.546875 C475.08161865 205.83370117 474.79214355 205.12052734 474.49389648 204.38574219 C473.26383608 198.44399713 475.67751063 191.89130764 477.15795898 186.10351562 C477.48521217 184.80606667 477.48521217 184.80606667 477.81907654 183.48240662 C478.54128784 180.62279965 479.26865006 177.76453 479.99609375 174.90625 C480.50909257 172.87983627 481.02178704 170.85334546 481.53419495 168.82678223 C482.88998119 163.46843402 484.25020307 158.11122108 485.61126709 152.75421143 C486.69092252 148.50186684 487.76755927 144.24876132 488.84389305 139.99557495 C489.63797405 136.85822581 490.43287431 133.72108517 491.22793579 130.58398438 C492.28142793 126.42699564 493.33232064 122.26936102 494.38168335 118.11132812 C496.62777933 109.22725698 498.88825372 100.34952478 501.27786541 91.50279999 C502.23298028 87.96660881 503.17520303 84.42702762 504.11750984 80.8874054 C504.75845963 78.5054619 505.42045356 76.13011037 506.08360291 73.75427246 C509.28865768 61.92023965 511.81197482 48.63497905 506.25 37.10546875 C500.90274291 28.09868259 492.98809166 22.97489749 483 20 C467.75082792 17.30518041 453.16499024 23.98497147 439.01944089 28.91781163 C435.39758147 30.17388467 431.76530087 31.39903704 428.1337738 32.6268158 C419.71418574 35.478754 411.30701646 38.36622183 402.90113068 41.25824738 C392.17759146 44.94606121 381.44909304 48.61900238 370.70842117 52.25663847 C366.40130793 53.7167185 362.10102374 55.1949713 357.80527222 56.68813145 C355.13073581 57.61387048 352.45124261 58.5245476 349.77026558 59.43144417 C347.94890338 60.0526702 346.13377385 60.69207804 344.31893921 61.3321228 C337.79548595 63.51970767 332.7524569 64.57209469 326 63 C324.71480469 62.71382812 323.42960937 62.42765625 322.10546875 62.1328125 C320.79881267 61.79947679 319.49284185 61.46344565 318.1875 61.125 C311.76802557 59.54485499 305.34931915 58.30058733 298.8125 57.3125 C298.04252686 57.19342285 297.27255371 57.0743457 296.47924805 56.95166016 C283.03737271 55.0034808 269.55347705 54.79486734 256 54.8125 C254.70958298 54.81340637 254.70958298 54.81340637 253.39309692 54.81433105 C230.07964668 54.85871031 205.6540822 55.84124701 183.4140625 63.58203125 C175.58519214 64.93751528 167.76595364 61.45045721 160.50390625 58.93920898 C158.61005105 58.29514624 156.71619352 57.65109031 154.82224941 57.00728905 C152.79821504 56.31782347 150.77544632 55.62474947 148.75292969 54.93084526 C144.517454 53.47872235 140.27686392 52.04197039 136.03515625 50.60816956 C123.97757732 46.53039311 111.92391651 42.44142167 99.88232422 38.31665039 C93.22270919 36.03558389 86.55735535 33.77218698 79.88530445 31.52774674 C76.36468353 30.34257702 72.84755801 29.14879775 69.33743286 27.93285942 C36.08909865 16.34042926 36.08909865 16.34042926 7.3984375 33.01953125 Z " fill="#000000" transform="translate(0,0)"/>
</svg>
